<svg xmlns="http://www.w3.org/2000/svg" version="1.1" xmlns:xlink="http://www.w3.org/1999/xlink" xmlns:svgjs="http://svgjs.dev/svgjs" viewBox="0 0 12.13479538779068 11.983320081086218"><g transform="matrix(1,0,0,1,1.00489769389534,8.804922387190878)"><g><path d=" M 0.9119912109375 0.05999999999999983 Q 0.9479912109374999 0.05999999999999983 0.9757412109375 0.08624999999999994 Q 1.0034912109375 0.11249999999999982 1.0034912109375 0.15149999999999986 L 1.0034912109375 1.0185 Q 1.0034912109375 1.0574999999999999 0.9749912109375001 1.0837499999999998 Q 0.9464912109375 1.1099999999999999 0.9089912109375 1.1099999999999999 Q 0.8669912109375 1.1099999999999999 0.8414912109375 1.0837499999999998 Q 0.8159912109375 1.0574999999999999 0.8159912109375 1.0185 L 0.8159912109375 0.15149999999999986 Q 0.8159912109375 0.11249999999999982 0.8429912109375 0.08624999999999994 Q 0.8699912109375 0.05999999999999983 0.9119912109375 0.05999999999999983 M 1.5764912109375 0.05999999999999983 Q 1.6184912109375 0.05999999999999983 1.6439912109375001 0.08624999999999994 Q 1.6694912109375 0.11249999999999982 1.6694912109375 0.15149999999999986 L 1.6694912109375 1.0185 Q 1.6694912109375 1.0574999999999999 1.6432412109375 1.0837499999999998 Q 1.6169912109375 1.1099999999999999 1.5734912109375 1.1099999999999999 Q 1.5374912109375 1.1099999999999999 1.5097412109375 1.0837499999999998 Q 1.4819912109375 1.0574999999999999 1.4819912109375 1.0185 L 1.4819912109375 0.15149999999999986 Q 1.4819912109375 0.11249999999999982 1.5104912109375 0.08624999999999994 Q 1.5389912109375001 0.05999999999999983 1.5764912109375 0.05999999999999983 M 0.9074912109375 0.49649999999999983 L 1.5764912109375 0.49649999999999983 L 1.5764912109375 0.6689999999999998 L 0.9074912109375 0.6689999999999998 L 0.9074912109375 0.49649999999999983 M 2.528982421875 0.29249999999999987 Q 2.567982421875 0.29249999999999987 2.593482421875 0.31799999999999984 Q 2.6189824218749997 0.3434999999999998 2.6189824218749997 0.3839999999999999 L 2.6189824218749997 1.0185 Q 2.6189824218749997 1.0574999999999999 2.593482421875 1.0837499999999998 Q 2.567982421875 1.1099999999999999 2.528982421875 1.1099999999999999 Q 2.489982421875 1.1099999999999999 2.464482421875 1.0837499999999998 Q 2.438982421875 1.0574999999999999 2.438982421875 1.0185 L 2.438982421875 0.9449999999999998 L 2.471982421875 0.9584999999999999 Q 2.471982421875 0.9779999999999999 2.450982421875 1.00575 Q 2.429982421875 1.0334999999999999 2.393982421875 1.0604999999999998 Q 2.357982421875 1.0875 2.309232421875 1.10625 Q 2.260482421875 1.1249999999999998 2.203482421875 1.1249999999999998 Q 2.099982421875 1.1249999999999998 2.015982421875 1.07175 Q 1.931982421875 1.0185 1.883232421875 0.9247499999999998 Q 1.834482421875 0.8309999999999998 1.834482421875 0.7094999999999998 Q 1.834482421875 0.5864999999999999 1.883232421875 0.4927499999999999 Q 1.931982421875 0.3989999999999999 2.014482421875 0.3457499999999999 Q 2.096982421875 0.29249999999999987 2.197482421875 0.29249999999999987 Q 2.261982421875 0.29249999999999987 2.315982421875 0.31199999999999983 Q 2.369982421875 0.3314999999999999 2.409732421875 0.3614999999999998 Q 2.449482421875 0.39149999999999985 2.471232421875 0.4222499999999999 Q 2.492982421875 0.45299999999999985 2.492982421875 0.47399999999999987 L 2.438982421875 0.4934999999999998 L 2.438982421875 0.3839999999999999 Q 2.438982421875 0.34499999999999986 2.464482421875 0.31874999999999987 Q 2.489982421875 0.29249999999999987 2.528982421875 0.29249999999999987 M 2.225982421875 0.9599999999999999 Q 2.291982421875 0.9599999999999999 2.341482421875 0.9269999999999998 Q 2.390982421875 0.8939999999999999 2.418732421875 0.8369999999999999 Q 2.446482421875 0.7799999999999998 2.446482421875 0.7094999999999998 Q 2.446482421875 0.6374999999999998 2.418732421875 0.5804999999999999 Q 2.390982421875 0.5234999999999999 2.341482421875 0.4904999999999998 Q 2.291982421875 0.4574999999999999 2.225982421875 0.4574999999999999 Q 2.161482421875 0.4574999999999999 2.111982421875 0.4904999999999998 Q 2.062482421875 0.5234999999999999 2.034732421875 0.5804999999999999 Q 2.006982421875 0.6374999999999998 2.006982421875 0.7094999999999998 Q 2.006982421875 0.7799999999999998 2.034732421875 0.8369999999999999 Q 2.062482421875 0.8939999999999999 2.111982421875 0.9269999999999998 Q 2.161482421875 0.9599999999999999 2.225982421875 0.9599999999999999 M 3.242961181640625 0.29249999999999987 Q 3.353961181640625 0.29249999999999987 3.411711181640625 0.33899999999999986 Q 3.469461181640625 0.38549999999999984 3.491211181640625 0.4627499999999999 Q 3.512961181640625 0.5399999999999998 3.512961181640625 0.6344999999999998 L 3.512961181640625 1.0185 Q 3.512961181640625 1.0574999999999999 3.487461181640625 1.0837499999999998 Q 3.461961181640625 1.1099999999999999 3.422961181640625 1.1099999999999999 Q 3.383961181640625 1.1099999999999999 3.358461181640625 1.0837499999999998 Q 3.3329611816406253 1.0574999999999999 3.3329611816406253 1.0185 L 3.3329611816406253 0.6344999999999998 Q 3.3329611816406253 0.5849999999999999 3.320211181640625 0.5452499999999999 Q 3.307461181640625 0.5054999999999998 3.274461181640625 0.4814999999999998 Q 3.241461181640625 0.4574999999999999 3.179961181640625 0.4574999999999999 Q 3.119961181640625 0.4574999999999999 3.078711181640625 0.4814999999999998 Q 3.037461181640625 0.5054999999999998 3.015711181640625 0.5452499999999999 Q 2.993961181640625 0.5849999999999999 2.993961181640625 0.6344999999999998 L 2.993961181640625 1.0185 Q 2.993961181640625 1.0574999999999999 2.968461181640625 1.0837499999999998 Q 2.942961181640625 1.1099999999999999 2.903961181640625 1.1099999999999999 Q 2.864961181640625 1.1099999999999999 2.839461181640625 1.0837499999999998 Q 2.813961181640625 1.0574999999999999 2.813961181640625 1.0185 L 2.813961181640625 0.3989999999999999 Q 2.813961181640625 0.3599999999999999 2.839461181640625 0.3337499999999999 Q 2.864961181640625 0.3074999999999999 2.903961181640625 0.3074999999999999 Q 2.942961181640625 0.3074999999999999 2.968461181640625 0.3337499999999999 Q 2.993961181640625 0.3599999999999999 2.993961181640625 0.3989999999999999 L 2.993961181640625 0.4634999999999999 L 2.971461181640625 0.45899999999999985 Q 2.984961181640625 0.4334999999999999 3.010461181640625 0.4042499999999999 Q 3.035961181640625 0.3749999999999999 3.070461181640625 0.3494999999999998 Q 3.104961181640625 0.32399999999999984 3.148461181640625 0.3082499999999999 Q 3.1919611816406253 0.29249999999999987 3.242961181640625 0.29249999999999987 M 4.3574736328125 -2.220446049250313e-16 Q 4.3964736328125 -2.220446049250313e-16 4.4219736328125 0.025499999999999856 Q 4.4474736328125 0.050999999999999934 4.4474736328125 0.09149999999999991 L 4.4474736328125 1.0185 Q 4.4474736328125 1.0574999999999999 4.4219736328125 1.0837499999999998 Q 4.3964736328125 1.1099999999999999 4.3574736328125 1.1099999999999999 Q 4.3184736328125 1.1099999999999999 4.2929736328125 1.0837499999999998 Q 4.2674736328125 1.0574999999999999 4.2674736328125 1.0185 L 4.2674736328125 0.9449999999999998 L 4.3004736328125 0.9584999999999999 Q 4.3004736328125 0.9779999999999999 4.2794736328125005 1.00575 Q 4.2584736328125 1.0334999999999999 4.2224736328125 1.0604999999999998 Q 4.1864736328125005 1.0875 4.1377236328125 1.10625 Q 4.0889736328125 1.1249999999999998 4.0319736328125 1.1249999999999998 Q 3.9284736328125 1.1249999999999998 3.8444736328125 1.07175 Q 3.7604736328125 1.0185 3.7117236328125 0.9247499999999998 Q 3.6629736328125 0.8309999999999998 3.6629736328125 0.7094999999999998 Q 3.6629736328125 0.5864999999999999 3.7117236328125 0.4927499999999999 Q 3.7604736328125 0.3989999999999999 3.8429736328125 0.3457499999999999 Q 3.9254736328125 0.29249999999999987 4.0259736328125 0.29249999999999987 Q 4.0904736328125 0.29249999999999987 4.1444736328125 0.31199999999999983 Q 4.1984736328125 0.3314999999999999 4.2382236328125 0.3614999999999998 Q 4.2779736328125 0.39149999999999985 4.2997236328125 0.4222499999999999 Q 4.3214736328125 0.45299999999999985 4.3214736328125 0.47399999999999987 L 4.2674736328125 0.4934999999999998 L 4.2674736328125 0.09149999999999991 Q 4.2674736328125 0.05249999999999977 4.2929736328125 0.026249999999999885 Q 4.3184736328125 -2.220446049250313e-16 4.3574736328125 -2.220446049250313e-16 M 4.0544736328125 0.9599999999999999 Q 4.1204736328125 0.9599999999999999 4.1699736328125 0.9269999999999998 Q 4.2194736328125 0.8939999999999999 4.2472236328125 0.8369999999999999 Q 4.2749736328125 0.7799999999999998 4.2749736328125 0.7094999999999998 Q 4.2749736328125 0.6374999999999998 4.2472236328125 0.5804999999999999 Q 4.2194736328125 0.5234999999999999 4.1699736328125 0.4904999999999998 Q 4.1204736328125 0.4574999999999999 4.0544736328125 0.4574999999999999 Q 3.9899736328125 0.4574999999999999 3.9404736328125 0.4904999999999998 Q 3.8909736328125 0.5234999999999999 3.8632236328125 0.5804999999999999 Q 3.8354736328125 0.6374999999999998 3.8354736328125 0.7094999999999998 Q 3.8354736328125 0.7799999999999998 3.8632236328125 0.8369999999999999 Q 3.8909736328125 0.8939999999999999 3.9404736328125 0.9269999999999998 Q 3.9899736328125 0.9599999999999999 4.0544736328125 0.9599999999999999 M 5.057952392578125 0.29249999999999987 Q 5.162952392578125 0.29249999999999987 5.246202392578125 0.3457499999999999 Q 5.3294523925781245 0.3989999999999999 5.378202392578125 0.4919999999999999 Q 5.426952392578125 0.5849999999999999 5.426952392578125 0.7079999999999999 Q 5.426952392578125 0.8309999999999998 5.378202392578125 0.9247499999999998 Q 5.3294523925781245 1.0185 5.247702392578125 1.07175 Q 5.165952392578125 1.1249999999999998 5.063952392578125 1.1249999999999998 Q 5.003952392578125 1.1249999999999998 4.951452392578125 1.1055 Q 4.898952392578125 1.0859999999999999 4.859202392578125 1.0559999999999998 Q 4.819452392578125 1.0259999999999998 4.797702392578125 0.9952499999999999 Q 4.775952392578125 0.9644999999999999 4.775952392578125 0.9434999999999999 L 4.822452392578125 0.9239999999999999 L 4.822452392578125 1.0334999999999999 Q 4.822452392578125 1.0724999999999998 4.796952392578125 1.09875 Q 4.771452392578125 1.1249999999999998 4.732452392578125 1.1249999999999998 Q 4.693452392578125 1.1249999999999998 4.667952392578125 1.0995 Q 4.642452392578125 1.0739999999999998 4.642452392578125 1.0334999999999999 L 4.642452392578125 0.09149999999999991 Q 4.642452392578125 0.05249999999999977 4.667952392578125 0.026249999999999885 Q 4.693452392578125 -2.220446049250313e-16 4.732452392578125 -2.220446049250313e-16 Q 4.771452392578125 -2.220446049250313e-16 4.796952392578125 0.026249999999999885 Q 4.822452392578125 0.05249999999999977 4.822452392578125 0.09149999999999991 L 4.822452392578125 0.4724999999999998 L 4.796952392578125 0.45899999999999985 Q 4.796952392578125 0.4394999999999999 4.817952392578125 0.41174999999999984 Q 4.838952392578125 0.3839999999999999 4.874952392578125 0.35624999999999984 Q 4.910952392578125 0.3284999999999999 4.958202392578125 0.3104999999999999 Q 5.005452392578125 0.29249999999999987 5.057952392578125 0.29249999999999987 M 5.035452392578125 0.4574999999999999 Q 4.969452392578125 0.4574999999999999 4.919952392578125 0.4904999999999998 Q 4.870452392578125 0.5234999999999999 4.842702392578125 0.5797499999999999 Q 4.814952392578125 0.6359999999999999 4.814952392578125 0.7079999999999999 Q 4.814952392578125 0.7784999999999999 4.842702392578125 0.8362499999999999 Q 4.870452392578125 0.8939999999999999 4.919952392578125 0.9269999999999998 Q 4.969452392578125 0.9599999999999999 5.035452392578125 0.9599999999999999 Q 5.101452392578125 0.9599999999999999 5.150202392578125 0.9269999999999998 Q 5.198952392578125 0.8939999999999999 5.226702392578125 0.8362499999999999 Q 5.254452392578125 0.7784999999999999 5.254452392578125 0.7079999999999999 Q 5.254452392578125 0.6359999999999999 5.226702392578125 0.5797499999999999 Q 5.198952392578125 0.5234999999999999 5.150202392578125 0.4904999999999998 Q 5.101452392578125 0.4574999999999999 5.035452392578125 0.4574999999999999 M 5.94743115234375 1.1249999999999998 Q 5.8199311523437505 1.1249999999999998 5.72618115234375 1.07175 Q 5.63243115234375 1.0185 5.58218115234375 0.9269999999999998 Q 5.53193115234375 0.8354999999999999 5.53193115234375 0.7199999999999999 Q 5.53193115234375 0.5849999999999999 5.58668115234375 0.4897499999999999 Q 5.64143115234375 0.39449999999999985 5.72993115234375 0.3434999999999998 Q 5.81843115234375 0.29249999999999987 5.91743115234375 0.29249999999999987 Q 5.99393115234375 0.29249999999999987 6.06218115234375 0.32399999999999984 Q 6.13043115234375 0.3554999999999998 6.18293115234375 0.4102499999999999 Q 6.23543115234375 0.46499999999999986 6.26618115234375 0.5369999999999998 Q 6.29693115234375 0.6089999999999999 6.29693115234375 0.69 Q 6.29543115234375 0.7259999999999999 6.26843115234375 0.7484999999999999 Q 6.2414311523437505 0.7709999999999999 6.20543115234375 0.7709999999999999 L 5.63243115234375 0.7709999999999999 L 5.58743115234375 0.6209999999999999 L 6.13793115234375 0.6209999999999999 L 6.10493115234375 0.6509999999999998 L 6.10493115234375 0.6104999999999998 Q 6.1019311523437505 0.5669999999999998 6.07418115234375 0.5324999999999999 Q 6.04643115234375 0.4979999999999999 6.00518115234375 0.4777499999999999 Q 5.96393115234375 0.4574999999999999 5.91743115234375 0.4574999999999999 Q 5.87243115234375 0.4574999999999999 5.83343115234375 0.4694999999999999 Q 5.79443115234375 0.4814999999999998 5.76593115234375 0.5099999999999999 Q 5.73743115234375 0.5384999999999999 5.72093115234375 0.5864999999999999 Q 5.70443115234375 0.6344999999999998 5.70443115234375 0.7079999999999999 Q 5.70443115234375 0.7889999999999999 5.73818115234375 0.8452499999999998 Q 5.77193115234375 0.9014999999999999 5.82518115234375 0.9307499999999999 Q 5.87843115234375 0.9599999999999999 5.93843115234375 0.9599999999999999 Q 5.99393115234375 0.9599999999999999 6.02693115234375 0.9509999999999998 Q 6.05993115234375 0.9419999999999998 6.08018115234375 0.9292499999999999 Q 6.10043115234375 0.9164999999999999 6.11693115234375 0.9074999999999999 Q 6.14393115234375 0.8939999999999999 6.16793115234375 0.8939999999999999 Q 6.20093115234375 0.8939999999999999 6.22268115234375 0.9164999999999999 Q 6.24443115234375 0.9389999999999998 6.24443115234375 0.9689999999999999 Q 6.24443115234375 1.0094999999999998 6.20243115234375 1.0425 Q 6.16343115234375 1.0755 6.09293115234375 1.10025 Q 6.02243115234375 1.1249999999999998 5.94743115234375 1.1249999999999998 M 6.536956787109375 1.1099999999999999 Q 6.497956787109375 1.1099999999999999 6.472456787109375 1.0837499999999998 Q 6.446956787109375 1.0574999999999999 6.446956787109375 1.0185 L 6.446956787109375 0.3989999999999999 Q 6.446956787109375 0.3599999999999999 6.472456787109375 0.3337499999999999 Q 6.497956787109375 0.3074999999999999 6.536956787109375 0.3074999999999999 Q 6.575956787109375 0.3074999999999999 6.601456787109375 0.3337499999999999 Q 6.626956787109375 0.3599999999999999 6.626956787109375 0.3989999999999999 L 6.626956787109375 0.5399999999999998 L 6.616456787109375 0.4394999999999999 Q 6.632956787109375 0.40349999999999986 6.659206787109375 0.3757499999999998 Q 6.685456787109375 0.34799999999999986 6.718456787109375 0.3292499999999998 Q 6.751456787109375 0.3104999999999999 6.788956787109375 0.3014999999999999 Q 6.826456787109375 0.29249999999999987 6.863956787109375 0.29249999999999987 Q 6.908956787109375 0.29249999999999987 6.939706787109375 0.31799999999999984 Q 6.970456787109375 0.3434999999999998 6.970456787109375 0.3779999999999999 Q 6.970456787109375 0.4274999999999999 6.944956787109375 0.4492499999999998 Q 6.919456787109375 0.47099999999999986 6.889456787109375 0.47099999999999986 Q 6.860956787109375 0.47099999999999986 6.837706787109375 0.4604999999999999 Q 6.814456787109375 0.44999999999999984 6.784456787109375 0.44999999999999984 Q 6.757456787109375 0.44999999999999984 6.729706787109375 0.4627499999999999 Q 6.701956787109375 0.4754999999999998 6.678706787109375 0.5024999999999998 Q 6.655456787109375 0.5294999999999999 6.641206787109375 0.5692499999999998 Q 6.626956787109375 0.6089999999999999 6.626956787109375 0.6629999999999998 L 6.626956787109375 1.0185 Q 6.626956787109375 1.0574999999999999 6.601456787109375 1.0837499999999998 Q 6.575956787109375 1.1099999999999999 6.536956787109375 1.1099999999999999 M 7.10698828125 0.3224999999999999 L 7.46248828125 0.3224999999999999 Q 7.49848828125 0.3224999999999999 7.52248828125 0.3464999999999998 Q 7.54648828125 0.37049999999999983 7.54648828125 0.40649999999999986 Q 7.54648828125 0.44099999999999984 7.52248828125 0.46424999999999983 Q 7.49848828125 0.4874999999999998 7.46248828125 0.4874999999999998 L 7.10698828125 0.4874999999999998 Q 7.07098828125 0.4874999999999998 7.04698828125 0.4634999999999999 Q 7.02298828125 0.4394999999999999 7.02298828125 0.40349999999999986 Q 7.02298828125 0.3689999999999999 7.04698828125 0.3457499999999999 Q 7.07098828125 0.3224999999999999 7.10698828125 0.3224999999999999 M 7.26748828125 0.1349999999999999 Q 7.30648828125 0.1349999999999999 7.33123828125 0.1612499999999999 Q 7.35598828125 0.1874999999999999 7.35598828125 0.2264999999999998 L 7.35598828125 0.8939999999999999 Q 7.35598828125 0.9149999999999998 7.36423828125 0.9284999999999999 Q 7.37248828125 0.9419999999999998 7.38673828125 0.9479999999999998 Q 7.40098828125 0.9539999999999998 7.41748828125 0.9539999999999998 Q 7.43548828125 0.9539999999999998 7.45048828125 0.9472499999999999 Q 7.46548828125 0.9404999999999999 7.48498828125 0.9404999999999999 Q 7.50598828125 0.9404999999999999 7.52323828125 0.9599999999999999 Q 7.54048828125 0.9794999999999998 7.54048828125 1.0139999999999998 Q 7.54048828125 1.0559999999999998 7.49473828125 1.083 Q 7.44898828125 1.1099999999999999 7.39648828125 1.1099999999999999 Q 7.36498828125 1.1099999999999999 7.32673828125 1.10475 Q 7.28848828125 1.0995 7.25473828125 1.0792499999999998 Q 7.22098828125 1.059 7.19848828125 1.017 Q 7.17598828125 0.9749999999999999 7.17598828125 0.9014999999999999 L 7.17598828125 0.2264999999999998 Q 7.17598828125 0.1874999999999999 7.20223828125 0.1612499999999999 Q 7.22848828125 0.1349999999999999 7.26748828125 0.1349999999999999 M 8.474975830078126 0.7094999999999998 Q 8.474975830078126 0.8324999999999998 8.420225830078126 0.9262499999999999 Q 8.365475830078125 1.0199999999999998 8.273225830078125 1.0724999999999998 Q 8.180975830078125 1.1249999999999998 8.066975830078125 1.1249999999999998 Q 7.952975830078125 1.1249999999999998 7.860725830078125 1.0724999999999998 Q 7.768475830078125 1.0199999999999998 7.713725830078125 0.9262499999999999 Q 7.658975830078125 0.8324999999999998 7.658975830078125 0.7094999999999998 Q 7.658975830078125 0.5864999999999999 7.713725830078125 0.4927499999999999 Q 7.768475830078125 0.3989999999999999 7.860725830078125 0.3457499999999999 Q 7.952975830078125 0.29249999999999987 8.066975830078125 0.29249999999999987 Q 8.180975830078125 0.29249999999999987 8.273225830078125 0.3457499999999999 Q 8.365475830078125 0.3989999999999999 8.420225830078126 0.4927499999999999 Q 8.474975830078126 0.5864999999999999 8.474975830078126 0.7094999999999998 M 8.294975830078124 0.7094999999999998 Q 8.294975830078124 0.6329999999999998 8.264225830078125 0.5767499999999999 Q 8.233475830078126 0.5204999999999999 8.181725830078125 0.4889999999999999 Q 8.129975830078125 0.4574999999999999 8.066975830078125 0.4574999999999999 Q 8.003975830078126 0.4574999999999999 7.952225830078125 0.4889999999999999 Q 7.900475830078125 0.5204999999999999 7.869725830078125 0.5767499999999999 Q 7.838975830078125 0.6329999999999998 7.838975830078125 0.7094999999999998 Q 7.838975830078125 0.7844999999999999 7.869725830078125 0.8407499999999999 Q 7.900475830078125 0.8969999999999999 7.952225830078125 0.9284999999999999 Q 8.003975830078126 0.9599999999999999 8.066975830078125 0.9599999999999999 Q 8.129975830078125 0.9599999999999999 8.181725830078125 0.9284999999999999 Q 8.233475830078126 0.8969999999999999 8.264225830078125 0.8407499999999999 Q 8.294975830078124 0.7844999999999999 8.294975830078124 0.7094999999999998 M 9.053996337890625 0.29249999999999987 Q 9.164996337890624 0.29249999999999987 9.222746337890625 0.33899999999999986 Q 9.280496337890625 0.38549999999999984 9.302246337890626 0.4627499999999999 Q 9.323996337890625 0.5399999999999998 9.323996337890625 0.6344999999999998 L 9.323996337890625 1.0185 Q 9.323996337890625 1.0574999999999999 9.298496337890626 1.0837499999999998 Q 9.272996337890625 1.1099999999999999 9.233996337890625 1.1099999999999999 Q 9.194996337890625 1.1099999999999999 9.169496337890624 1.0837499999999998 Q 9.143996337890625 1.0574999999999999 9.143996337890625 1.0185 L 9.143996337890625 0.6344999999999998 Q 9.143996337890625 0.5849999999999999 9.131246337890625 0.5452499999999999 Q 9.118496337890624 0.5054999999999998 9.085496337890625 0.4814999999999998 Q 9.052496337890625 0.4574999999999999 8.990996337890625 0.4574999999999999 Q 8.930996337890624 0.4574999999999999 8.889746337890625 0.4814999999999998 Q 8.848496337890625 0.5054999999999998 8.826746337890626 0.5452499999999999 Q 8.804996337890625 0.5849999999999999 8.804996337890625 0.6344999999999998 L 8.804996337890625 1.0185 Q 8.804996337890625 1.0574999999999999 8.779496337890626 1.0837499999999998 Q 8.753996337890625 1.1099999999999999 8.714996337890625 1.1099999999999999 Q 8.675996337890625 1.1099999999999999 8.650496337890624 1.0837499999999998 Q 8.624996337890625 1.0574999999999999 8.624996337890625 1.0185 L 8.624996337890625 0.3989999999999999 Q 8.624996337890625 0.3599999999999999 8.650496337890624 0.3337499999999999 Q 8.675996337890625 0.3074999999999999 8.714996337890625 0.3074999999999999 Q 8.753996337890625 0.3074999999999999 8.779496337890626 0.3337499999999999 Q 8.804996337890625 0.3599999999999999 8.804996337890625 0.3989999999999999 L 8.804996337890625 0.4634999999999999 L 8.782496337890626 0.45899999999999985 Q 8.795996337890625 0.4334999999999999 8.821496337890625 0.4042499999999999 Q 8.846996337890625 0.3749999999999999 8.881496337890624 0.3494999999999998 Q 8.915996337890626 0.32399999999999984 8.959496337890625 0.3082499999999999 Q 9.002996337890625 0.29249999999999987 9.053996337890625 0.29249999999999987" fill="#ffffff" fill-rule="nonzero"></path></g><g><path d=" M 0.11325 1.9927499999999998 Q 0.11325 2.0055 0.104625 2.0145 Q 0.096 2.0235 0.08325 2.0235 Q 0.06975 2.0235 0.0615 2.0145 Q 0.05325 2.0055 0.05325 1.9927499999999998 L 0.05325 1.6597499999999998 Q 0.05325 1.6469999999999998 0.061875 1.638375 Q 0.07050000000000001 1.6297499999999998 0.08325 1.6297499999999998 Q 0.096 1.6297499999999998 0.104625 1.638375 Q 0.11325 1.6469999999999998 0.11325 1.6597499999999998 L 0.11325 1.9927499999999998 M 0.08325 1.5795 Q 0.0645 1.5795 0.0555 1.5719999999999998 Q 0.0465 1.5644999999999998 0.0465 1.5487499999999998 L 0.0465 1.53825 Q 0.0465 1.5225 0.05625 1.5149999999999997 Q 0.066 1.5074999999999998 0.084 1.5074999999999998 Q 0.10200000000000001 1.5074999999999998 0.111 1.5149999999999997 Q 0.12 1.5225 0.12 1.53825 L 0.12 1.5487499999999998 Q 0.12 1.5644999999999998 0.110625 1.5719999999999998 Q 0.10125 1.5795 0.08325 1.5795 M 0.20625622558593754 1.638 L 0.3825062255859375 1.638 Q 0.3945062255859375 1.638 0.40238122558593753 1.6462499999999998 Q 0.41025622558593755 1.6544999999999999 0.41025622558593755 1.6657499999999998 Q 0.41025622558593755 1.6777499999999999 0.40238122558593753 1.685625 Q 0.3945062255859375 1.6934999999999998 0.3825062255859375 1.6934999999999998 L 0.20625622558593754 1.6934999999999998 Q 0.19500622558593753 1.6934999999999998 0.18675622558593752 1.68525 Q 0.17850622558593754 1.6769999999999998 0.17850622558593754 1.6649999999999998 Q 0.17850622558593754 1.6537499999999998 0.18675622558593752 1.6458749999999998 Q 0.19500622558593753 1.638 0.20625622558593754 1.638 M 0.2850062255859375 1.5359999999999998 Q 0.2977562255859375 1.5359999999999998 0.30600622558593754 1.544625 Q 0.3142562255859375 1.5532499999999998 0.3142562255859375 1.5659999999999998 L 0.3142562255859375 1.9282499999999998 Q 0.3142562255859375 1.9462499999999998 0.31950622558593755 1.95525 Q 0.32475622558593753 1.9642499999999998 0.3333812255859375 1.967625 Q 0.3420062255859375 1.9709999999999999 0.3502562255859375 1.9709999999999999 Q 0.35775622558593756 1.9709999999999999 0.36338122558593755 1.9683749999999998 Q 0.36900622558593754 1.9657499999999999 0.3765062255859375 1.9657499999999999 Q 0.38400622558593756 1.9657499999999999 0.3903812255859375 1.972875 Q 0.39675622558593754 1.9799999999999998 0.39675622558593754 1.99125 Q 0.39675622558593754 2.00475 0.38100622558593755 2.014125 Q 0.3652562255859375 2.0235 0.34575622558593755 2.0235 Q 0.33525622558593754 2.0235 0.31988122558593757 2.022 Q 0.30450622558593754 2.0204999999999997 0.2895062255859375 2.01225 Q 0.2745062255859375 2.004 0.2643812255859375 1.984875 Q 0.2542562255859375 1.9657499999999999 0.2542562255859375 1.93125 L 0.2542562255859375 1.5659999999999998 Q 0.2542562255859375 1.5532499999999998 0.26325622558593753 1.544625 Q 0.27225622558593754 1.5359999999999998 0.2850062255859375 1.5359999999999998 M 0.4852382812500001 1.52325 Q 0.48823828125000013 1.4985 0.5129882812500001 1.4985 L 0.5369882812500001 1.4985 Q 0.5504882812500002 1.4985 0.5553632812500001 1.5063749999999998 Q 0.5602382812500001 1.5142499999999999 0.5557382812500001 1.527 L 0.5069882812500002 1.68675 Q 0.5009882812500002 1.7054999999999998 0.4822382812500001 1.7054999999999998 Q 0.46648828125000014 1.7054999999999998 0.4687382812500001 1.6822499999999998 L 0.4852382812500001 1.52325 M 0.6217474365234377 1.9619999999999997 Q 0.6149974365234376 1.9522499999999998 0.6157474365234377 1.9413749999999999 Q 0.6164974365234376 1.9304999999999999 0.6284974365234376 1.9222499999999998 Q 0.6359974365234377 1.9169999999999998 0.6461224365234376 1.9177499999999998 Q 0.6562474365234376 1.9184999999999999 0.6644974365234376 1.9274999999999998 Q 0.6854974365234376 1.9522499999999998 0.7124974365234376 1.966875 Q 0.7394974365234376 1.9814999999999998 0.7784974365234376 1.9814999999999998 Q 0.7964974365234376 1.9807499999999998 0.8144974365234376 1.9754999999999998 Q 0.8324974365234377 1.9702499999999998 0.8448724365234377 1.9571249999999998 Q 0.8572474365234376 1.944 0.8572474365234376 1.9222499999999998 Q 0.8572474365234376 1.9012499999999999 0.8444974365234377 1.8888749999999999 Q 0.8317474365234376 1.8764999999999998 0.8114974365234376 1.8686249999999998 Q 0.7912474365234377 1.86075 0.7672474365234376 1.85475 Q 0.7424974365234376 1.8479999999999999 0.7184974365234376 1.8393749999999998 Q 0.6944974365234377 1.8307499999999999 0.6753724365234376 1.8176249999999998 Q 0.6562474365234376 1.8044999999999998 0.6446224365234376 1.784625 Q 0.6329974365234377 1.7647499999999998 0.6329974365234377 1.7362499999999998 Q 0.6329974365234377 1.7025 0.6513724365234376 1.6777499999999999 Q 0.6697474365234376 1.6529999999999998 0.7008724365234376 1.6395 Q 0.7319974365234376 1.626 0.7687474365234376 1.626 Q 0.7897474365234376 1.626 0.8126224365234376 1.6308749999999999 Q 0.8354974365234376 1.6357499999999998 0.8572474365234376 1.6473749999999998 Q 0.8789974365234376 1.6589999999999998 0.8954974365234376 1.67925 Q 0.9022474365234376 1.68675 0.9029974365234377 1.698 Q 0.9037474365234377 1.70925 0.8932474365234376 1.7182499999999998 Q 0.8849974365234377 1.7242499999999998 0.8748724365234376 1.7234999999999998 Q 0.8647474365234376 1.7227499999999998 0.8579974365234376 1.7159999999999997 Q 0.8422474365234376 1.69725 0.8186224365234376 1.687125 Q 0.7949974365234376 1.6769999999999998 0.7664974365234376 1.6769999999999998 Q 0.7484974365234376 1.6769999999999998 0.7312474365234376 1.6822499999999998 Q 0.7139974365234376 1.6874999999999998 0.7023724365234376 1.6998749999999998 Q 0.6907474365234376 1.7122499999999998 0.6907474365234376 1.734 Q 0.6914974365234376 1.7542499999999999 0.7042474365234376 1.767 Q 0.7169974365234376 1.77975 0.7387474365234377 1.7876249999999998 Q 0.7604974365234376 1.7954999999999999 0.7867474365234376 1.803 Q 0.8107474365234376 1.809 0.8328724365234377 1.8168749999999998 Q 0.8549974365234376 1.8247499999999999 0.8729974365234376 1.8375 Q 0.8909974365234377 1.85025 0.9014974365234376 1.8701249999999998 Q 0.9119974365234376 1.89 0.9119974365234376 1.92 Q 0.9119974365234376 1.9545 0.8924974365234376 1.9796249999999997 Q 0.8729974365234376 2.00475 0.8411224365234375 2.0178749999999996 Q 0.8092474365234377 2.0309999999999997 0.7724974365234376 2.0309999999999997 Q 0.7312474365234376 2.0309999999999997 0.6911224365234376 2.01525 Q 0.6509974365234377 1.9994999999999998 0.6217474365234377 1.9619999999999997 M 1.3980150146484376 1.626 Q 1.4490150146484375 1.626 1.4782650146484375 1.6469999999999998 Q 1.5075150146484375 1.668 1.5198900146484375 1.70325 Q 1.5322650146484376 1.7384999999999997 1.5322650146484376 1.7819999999999998 L 1.5322650146484376 1.9927499999999998 Q 1.5322650146484376 2.0055 1.5236400146484375 2.0145 Q 1.5150150146484376 2.0235 1.5022650146484375 2.0235 Q 1.4895150146484375 2.0235 1.4808900146484376 2.0145 Q 1.4722650146484375 2.0055 1.4722650146484375 1.9927499999999998 L 1.4722650146484375 1.7834999999999999 Q 1.4722650146484375 1.755 1.4636400146484374 1.732125 Q 1.4550150146484375 1.70925 1.4351400146484374 1.6953749999999999 Q 1.4152650146484376 1.6814999999999998 1.3807650146484376 1.6814999999999998 Q 1.3492650146484375 1.6814999999999998 1.3230150146484374 1.6953749999999999 Q 1.2967650146484375 1.70925 1.2810150146484376 1.732125 Q 1.2652650146484374 1.755 1.2652650146484374 1.7834999999999999 L 1.2652650146484374 1.9927499999999998 Q 1.2652650146484374 2.0055 1.2566400146484376 2.0145 Q 1.2480150146484374 2.0235 1.2352650146484374 2.0235 Q 1.2225150146484376 2.0235 1.2138900146484375 2.0145 Q 1.2052650146484376 2.0055 1.2052650146484376 1.9927499999999998 L 1.2052650146484376 1.6657499999999998 Q 1.2052650146484376 1.6529999999999998 1.2138900146484375 1.644375 Q 1.2225150146484376 1.6357499999999998 1.2352650146484374 1.6357499999999998 Q 1.2487650146484375 1.6357499999999998 1.2570150146484376 1.644375 Q 1.2652650146484374 1.6529999999999998 1.2652650146484374 1.6657499999999998 L 1.2652650146484374 1.7189999999999999 L 1.2502650146484375 1.7354999999999998 Q 1.2540150146484375 1.7159999999999997 1.2675150146484375 1.6961249999999999 Q 1.2810150146484376 1.6762499999999998 1.3012650146484375 1.6604999999999999 Q 1.3215150146484376 1.6447499999999997 1.3462650146484374 1.6353749999999998 Q 1.3710150146484374 1.626 1.3980150146484376 1.626 M 2.0077532958984374 1.8284999999999998 Q 2.0077532958984374 1.8869999999999998 1.9822532958984376 1.93275 Q 1.9567532958984375 1.9785 1.9128782958984374 2.00475 Q 1.8690032958984375 2.0309999999999997 1.8135032958984376 2.0309999999999997 Q 1.7587532958984375 2.0309999999999997 1.7148782958984374 2.00475 Q 1.6710032958984375 1.9785 1.6451282958984375 1.93275 Q 1.6192532958984376 1.8869999999999998 1.6192532958984376 1.8284999999999998 Q 1.6192532958984376 1.7699999999999998 1.6451282958984375 1.7242499999999998 Q 1.6710032958984375 1.6784999999999999 1.7148782958984374 1.6522499999999998 Q 1.7587532958984375 1.626 1.8135032958984376 1.626 Q 1.8690032958984375 1.626 1.9128782958984374 1.6522499999999998 Q 1.9567532958984375 1.6784999999999999 1.9822532958984376 1.7242499999999998 Q 2.0077532958984374 1.7699999999999998 2.0077532958984374 1.8284999999999998 M 1.9477532958984374 1.8284999999999998 Q 1.9477532958984374 1.785 1.9301282958984376 1.7519999999999998 Q 1.9125032958984374 1.7189999999999999 1.8821282958984376 1.7002499999999998 Q 1.8517532958984375 1.6814999999999998 1.8135032958984376 1.6814999999999998 Q 1.7760032958984375 1.6814999999999998 1.7452532958984375 1.7002499999999998 Q 1.7145032958984374 1.7189999999999999 1.6968782958984374 1.7519999999999998 Q 1.6792532958984374 1.785 1.6792532958984374 1.8284999999999998 Q 1.6792532958984374 1.8712499999999999 1.6968782958984374 1.9042499999999998 Q 1.7145032958984374 1.93725 1.7452532958984375 1.9563749999999998 Q 1.7760032958984375 1.9754999999999998 1.8135032958984376 1.9754999999999998 Q 1.8517532958984375 1.9754999999999998 1.8821282958984376 1.9563749999999998 Q 1.9125032958984374 1.93725 1.9301282958984376 1.9042499999999998 Q 1.9477532958984374 1.8712499999999999 1.9477532958984374 1.8284999999999998 M 2.07974560546875 1.638 L 2.25599560546875 1.638 Q 2.26799560546875 1.638 2.27587060546875 1.6462499999999998 Q 2.28374560546875 1.6544999999999999 2.28374560546875 1.6657499999999998 Q 2.28374560546875 1.6777499999999999 2.27587060546875 1.685625 Q 2.26799560546875 1.6934999999999998 2.25599560546875 1.6934999999999998 L 2.07974560546875 1.6934999999999998 Q 2.06849560546875 1.6934999999999998 2.06024560546875 1.68525 Q 2.05199560546875 1.6769999999999998 2.05199560546875 1.6649999999999998 Q 2.05199560546875 1.6537499999999998 2.06024560546875 1.6458749999999998 Q 2.06849560546875 1.638 2.07974560546875 1.638 M 2.15849560546875 1.5359999999999998 Q 2.17124560546875 1.5359999999999998 2.17949560546875 1.544625 Q 2.18774560546875 1.5532499999999998 2.18774560546875 1.5659999999999998 L 2.18774560546875 1.9282499999999998 Q 2.18774560546875 1.9462499999999998 2.19299560546875 1.95525 Q 2.19824560546875 1.9642499999999998 2.20687060546875 1.967625 Q 2.21549560546875 1.9709999999999999 2.22374560546875 1.9709999999999999 Q 2.23124560546875 1.9709999999999999 2.23687060546875 1.9683749999999998 Q 2.24249560546875 1.9657499999999999 2.24999560546875 1.9657499999999999 Q 2.25749560546875 1.9657499999999999 2.26387060546875 1.972875 Q 2.27024560546875 1.9799999999999998 2.27024560546875 1.99125 Q 2.27024560546875 2.00475 2.25449560546875 2.014125 Q 2.23874560546875 2.0235 2.21924560546875 2.0235 Q 2.20874560546875 2.0235 2.19337060546875 2.022 Q 2.17799560546875 2.0204999999999997 2.16299560546875 2.01225 Q 2.14799560546875 2.004 2.13787060546875 1.984875 Q 2.12774560546875 1.9657499999999999 2.12774560546875 1.93125 L 2.12774560546875 1.5659999999999998 Q 2.12774560546875 1.5532499999999998 2.13674560546875 1.544625 Q 2.14574560546875 1.5359999999999998 2.15849560546875 1.5359999999999998 M 2.7584959716796873 1.6297499999999998 Q 2.8094959716796875 1.6297499999999998 2.8413709716796873 1.655625 Q 2.8732459716796876 1.6814999999999998 2.8837459716796876 1.7287499999999998 L 2.8724959716796876 1.7287499999999998 L 2.8777459716796874 1.7152499999999997 Q 2.8867459716796873 1.6942499999999998 2.9084959716796877 1.67475 Q 2.9302459716796876 1.6552499999999999 2.9587459716796873 1.6424999999999998 Q 2.9872459716796875 1.6297499999999998 3.0179959716796874 1.6297499999999998 Q 3.0674959716796875 1.6297499999999998 3.0959959716796877 1.651125 Q 3.1244959716796874 1.6724999999999999 3.1368709716796874 1.708125 Q 3.1492459716796875 1.74375 3.1492459716796875 1.7879999999999998 L 3.1492459716796875 1.9927499999999998 Q 3.1492459716796875 2.0055 3.1406209716796876 2.0145 Q 3.1319959716796877 2.0235 3.1192459716796876 2.0235 Q 3.1057459716796876 2.0235 3.0974959716796873 2.0145 Q 3.0892459716796874 2.0055 3.0892459716796874 1.9927499999999998 L 3.0892459716796874 1.7894999999999999 Q 3.0892459716796874 1.7602499999999999 3.0806209716796875 1.7366249999999999 Q 3.0719959716796876 1.7129999999999999 3.0528709716796874 1.6991249999999998 Q 3.0337459716796875 1.68525 3.0007459716796876 1.68525 Q 2.9699959716796873 1.68525 2.9444959716796877 1.6991249999999998 Q 2.9189959716796876 1.7129999999999999 2.9039959716796875 1.7366249999999999 Q 2.8889959716796874 1.7602499999999999 2.8889959716796874 1.7894999999999999 L 2.8889959716796874 1.9927499999999998 Q 2.8889959716796874 2.0055 2.8807459716796875 2.0145 Q 2.8724959716796876 2.0235 2.8589959716796876 2.0235 Q 2.8462459716796875 2.0235 2.8376209716796876 2.0145 Q 2.8289959716796877 2.0055 2.8289959716796877 1.9927499999999998 L 2.8289959716796877 1.7872499999999998 Q 2.8289959716796877 1.7587499999999998 2.8211209716796875 1.7358749999999998 Q 2.8132459716796876 1.7129999999999999 2.7944959716796873 1.6991249999999998 Q 2.7757459716796875 1.68525 2.7427459716796876 1.68525 Q 2.7127459716796873 1.68525 2.6879959716796877 1.6991249999999998 Q 2.6632459716796877 1.7129999999999999 2.6482459716796876 1.7358749999999998 Q 2.6332459716796874 1.7587499999999998 2.6332459716796874 1.7872499999999998 L 2.6332459716796874 1.9927499999999998 Q 2.6332459716796874 2.0055 2.6246209716796876 2.0145 Q 2.6159959716796877 2.0235 2.6032459716796876 2.0235 Q 2.5904959716796876 2.0235 2.5818709716796877 2.0145 Q 2.5732459716796874 2.0055 2.5732459716796874 1.9927499999999998 L 2.5732459716796874 1.6657499999999998 Q 2.5732459716796874 1.6529999999999998 2.5818709716796877 1.644375 Q 2.5904959716796876 1.6357499999999998 2.6032459716796876 1.6357499999999998 Q 2.6167459716796877 1.6357499999999998 2.6249959716796876 1.644375 Q 2.6332459716796874 1.6529999999999998 2.6332459716796874 1.6657499999999998 L 2.6332459716796874 1.7227499999999998 L 2.6167459716796877 1.7407499999999998 Q 2.6197459716796874 1.72125 2.6321209716796874 1.7017499999999999 Q 2.6444959716796874 1.6822499999999998 2.6639959716796877 1.6657499999999998 Q 2.6834959716796876 1.6492499999999999 2.7074959716796876 1.6395 Q 2.7314959716796876 1.6297499999999998 2.7584959716796873 1.6297499999999998 M 3.5760076904296874 1.632 Q 3.5895076904296874 1.632 3.5977576904296873 1.6406249999999998 Q 3.6060076904296876 1.6492499999999999 3.6060076904296876 1.662 L 3.6060076904296876 1.9927499999999998 Q 3.6060076904296876 2.0055 3.5973826904296873 2.0145 Q 3.5887576904296874 2.0235 3.5760076904296874 2.0235 Q 3.5632576904296873 2.0235 3.5546326904296874 2.0145 Q 3.5460076904296876 2.0055 3.5460076904296876 1.9927499999999998 L 3.5460076904296876 1.9214999999999998 L 3.5602576904296876 1.92 Q 3.5602576904296876 1.9364999999999999 3.5490076904296877 1.956 Q 3.5377576904296877 1.9754999999999998 3.5182576904296874 1.9923749999999998 Q 3.4987576904296875 2.0092499999999998 3.4725076904296874 2.0201249999999997 Q 3.4462576904296873 2.0309999999999997 3.4155076904296875 2.0309999999999997 Q 3.3645076904296873 2.0309999999999997 3.3236326904296876 2.004375 Q 3.2827576904296873 1.97775 3.2595076904296874 1.932 Q 3.2362576904296874 1.8862499999999998 3.2362576904296874 1.8277499999999998 Q 3.2362576904296874 1.7685 3.2598826904296874 1.7231249999999998 Q 3.2835076904296874 1.6777499999999999 3.3236326904296876 1.651875 Q 3.3637576904296873 1.626 3.4140076904296874 1.626 Q 3.4462576904296873 1.626 3.4740076904296875 1.6364999999999998 Q 3.5017576904296877 1.6469999999999998 3.5223826904296875 1.6649999999999998 Q 3.5430076904296874 1.6829999999999998 3.5542576904296874 1.7047499999999998 Q 3.5655076904296874 1.7265 3.5655076904296874 1.7482499999999999 L 3.5460076904296876 1.74375 L 3.5460076904296876 1.662 Q 3.5460076904296876 1.6492499999999999 3.5546326904296874 1.6406249999999998 Q 3.5632576904296873 1.632 3.5760076904296874 1.632 M 3.4215076904296877 1.9754999999999998 Q 3.4590076904296874 1.9754999999999998 3.4878826904296876 1.956 Q 3.5167576904296873 1.9364999999999999 3.5332576904296875 1.903125 Q 3.5497576904296877 1.8697499999999998 3.5497576904296877 1.8277499999999998 Q 3.5497576904296877 1.7864999999999998 3.5332576904296875 1.7531249999999998 Q 3.5167576904296873 1.71975 3.4878826904296876 1.7006249999999998 Q 3.4590076904296874 1.6814999999999998 3.4215076904296877 1.6814999999999998 Q 3.3847576904296877 1.6814999999999998 3.3558826904296875 1.7002499999999998 Q 3.3270076904296877 1.7189999999999999 3.3105076904296875 1.7519999999999998 Q 3.2940076904296873 1.785 3.2940076904296873 1.8277499999999998 Q 3.2940076904296873 1.8697499999999998 3.3105076904296875 1.903125 Q 3.3270076904296877 1.9364999999999999 3.3558826904296875 1.956 Q 3.3847576904296877 1.9754999999999998 3.4215076904296877 1.9754999999999998 M 3.8760142822265626 1.626 Q 3.9090142822265626 1.626 3.9367642822265623 1.6368749999999999 Q 3.9645142822265624 1.6477499999999998 3.9851392822265623 1.6649999999999998 Q 4.005764282226562 1.6822499999999998 4.017389282226563 1.7009999999999998 Q 4.029014282226562 1.71975 4.029014282226562 1.7362499999999998 L 4.0140142822265625 1.7272499999999997 L 4.0140142822265625 1.662 Q 4.0140142822265625 1.6492499999999999 4.022639282226563 1.6406249999999998 Q 4.031264282226562 1.632 4.044014282226563 1.632 Q 4.057514282226562 1.632 4.065764282226563 1.6406249999999998 Q 4.074014282226562 1.6492499999999999 4.074014282226562 1.662 L 4.074014282226562 1.9905 Q 4.074014282226562 2.052 4.048139282226563 2.0925 Q 4.022264282226563 2.133 3.9787642822265625 2.15325 Q 3.9352642822265627 2.1734999999999998 3.8820142822265624 2.1734999999999998 Q 3.8595142822265625 2.1734999999999998 3.8321392822265623 2.1675 Q 3.8047642822265626 2.1614999999999998 3.7837642822265627 2.152875 Q 3.7627642822265623 2.14425 3.7575142822265626 2.1352499999999996 Q 3.7462642822265626 2.12775 3.7436392822265625 2.118375 Q 3.7410142822265624 2.109 3.7462642822265626 2.1007499999999997 Q 3.7537642822265624 2.0902499999999997 3.7642642822265624 2.0902499999999997 Q 3.7747642822265624 2.0902499999999997 3.7912642822265625 2.097 Q 3.7987642822265624 2.09925 3.8130142822265625 2.1045 Q 3.8272642822265626 2.10975 3.8460142822265624 2.1138749999999997 Q 3.8647642822265627 2.118 3.8827642822265624 2.118 Q 3.9465142822265626 2.118 3.9802642822265626 2.084625 Q 4.0140142822265625 2.05125 4.0140142822265625 1.9965 L 4.0140142822265625 1.9267499999999997 L 4.022264282226563 1.9304999999999999 Q 4.017764282226563 1.9514999999999998 4.004264282226562 1.9694999999999998 Q 3.9907642822265625 1.9874999999999998 3.9708892822265627 2.001375 Q 3.9510142822265624 2.01525 3.9266392822265623 2.023125 Q 3.9022642822265623 2.0309999999999997 3.8775142822265627 2.0309999999999997 Q 3.8250142822265625 2.0309999999999997 3.7833892822265627 2.00475 Q 3.7417642822265624 1.9785 3.7173892822265624 1.93275 Q 3.6930142822265624 1.8869999999999998 3.6930142822265624 1.8284999999999998 Q 3.6930142822265624 1.7692499999999998 3.7173892822265624 1.7234999999999998 Q 3.7417642822265624 1.6777499999999999 3.7830142822265627 1.651875 Q 3.8242642822265625 1.626 3.8760142822265626 1.626 M 3.8842642822265625 1.6814999999999998 Q 3.8452642822265624 1.6814999999999998 3.8152642822265626 1.7006249999999998 Q 3.7852642822265623 1.71975 3.7680142822265625 1.7527499999999998 Q 3.7507642822265623 1.7857499999999997 3.7507642822265623 1.8284999999999998 Q 3.7507642822265623 1.8697499999999998 3.7680142822265625 1.903125 Q 3.7852642822265623 1.9364999999999999 3.8152642822265626 1.956 Q 3.8452642822265624 1.9754999999999998 3.8842642822265625 1.9754999999999998 Q 3.9232642822265626 1.9754999999999998 3.9532642822265625 1.9563749999999998 Q 3.9832642822265623 1.93725 4.000514282226563 1.9042499999999998 Q 4.017764282226563 1.8712499999999999 4.017764282226563 1.8284999999999998 Q 4.017764282226563 1.785 4.000514282226563 1.7519999999999998 Q 3.9832642822265623 1.7189999999999999 3.9532642822265625 1.7002499999999998 Q 3.9232642822265626 1.6814999999999998 3.8842642822265625 1.6814999999999998 M 4.242781860351562 1.9927499999999998 Q 4.242781860351562 2.0055 4.234156860351563 2.0145 Q 4.225531860351563 2.0235 4.212781860351562 2.0235 Q 4.1992818603515625 2.0235 4.191031860351562 2.0145 Q 4.182781860351563 2.0055 4.182781860351563 1.9927499999999998 L 4.182781860351563 1.6597499999999998 Q 4.182781860351563 1.6469999999999998 4.191406860351562 1.638375 Q 4.2000318603515625 1.6297499999999998 4.212781860351562 1.6297499999999998 Q 4.225531860351563 1.6297499999999998 4.234156860351563 1.638375 Q 4.242781860351562 1.6469999999999998 4.242781860351562 1.6597499999999998 L 4.242781860351562 1.9927499999999998 M 4.212781860351562 1.5795 Q 4.194031860351562 1.5795 4.185031860351563 1.5719999999999998 Q 4.1760318603515625 1.5644999999999998 4.1760318603515625 1.5487499999999998 L 4.1760318603515625 1.53825 Q 4.1760318603515625 1.5225 4.185781860351563 1.5149999999999997 Q 4.195531860351562 1.5074999999999998 4.213531860351562 1.5074999999999998 Q 4.231531860351563 1.5074999999999998 4.240531860351562 1.5149999999999997 Q 4.249531860351563 1.5225 4.249531860351563 1.53825 L 4.249531860351563 1.5487499999999998 Q 4.249531860351563 1.5644999999999998 4.240156860351562 1.5719999999999998 Q 4.230781860351563 1.5795 4.212781860351562 1.5795 M 4.5195380859375 1.626 Q 4.5577880859375 1.626 4.5885380859375005 1.6342499999999998 Q 4.6192880859375 1.6424999999999998 4.6372880859375 1.6567499999999997 Q 4.6552880859375 1.6709999999999998 4.6552880859375 1.6889999999999998 Q 4.6552880859375 1.69875 4.6489130859375 1.7077499999999999 Q 4.6425380859375 1.7167499999999998 4.6305380859375 1.7167499999999998 Q 4.6207880859375 1.7167499999999998 4.6144130859375 1.7129999999999999 Q 4.6080380859375 1.70925 4.6024130859375 1.70325 Q 4.5967880859375 1.69725 4.5870380859375 1.6927499999999998 Q 4.5780380859375 1.6874999999999998 4.5607880859375 1.6844999999999999 Q 4.5435380859375 1.6814999999999998 4.5255380859375 1.6814999999999998 Q 4.4850380859375 1.6814999999999998 4.4535380859375 1.7009999999999998 Q 4.4220380859375 1.7205 4.4044130859375 1.7534999999999998 Q 4.3867880859375 1.7864999999999998 4.3867880859375 1.8284999999999998 Q 4.3867880859375 1.8704999999999998 4.4040380859375 1.9034999999999997 Q 4.4212880859375 1.9364999999999999 4.4520380859375 1.956 Q 4.4827880859375 1.9754999999999998 4.5232880859375 1.9754999999999998 Q 4.5495380859375 1.9754999999999998 4.5649130859375 1.9709999999999999 Q 4.5802880859375 1.9665 4.5915380859375 1.9605 Q 4.6042880859375 1.9529999999999998 4.6114130859374995 1.9454999999999998 Q 4.6185380859375 1.938 4.6312880859375 1.938 Q 4.6440380859375 1.938 4.6507880859375 1.9462499999999998 Q 4.6575380859375 1.9545 4.6575380859375 1.9665 Q 4.6575380859375 1.9799999999999998 4.6387880859375 1.9949999999999999 Q 4.6200380859375 2.01 4.5881630859375 2.0204999999999997 Q 4.5562880859375 2.0309999999999997 4.5165380859375 2.0309999999999997 Q 4.4595380859375 2.0309999999999997 4.4167880859375 2.004375 Q 4.3740380859375 1.97775 4.3504130859375 1.931625 Q 4.3267880859375 1.8855 4.3267880859375 1.8284999999999998 Q 4.3267880859375 1.7714999999999999 4.3511630859375 1.72575 Q 4.3755380859375 1.6799999999999997 4.4190380859375 1.6529999999999998 Q 4.4625380859375 1.626 4.5195380859375 1.626 M 4.812770874023437 2.0197499999999997 Q 4.812770874023437 2.03475 4.806395874023438 2.051625 Q 4.800020874023438 2.0685 4.788770874023437 2.0835 Q 4.777520874023438 2.0985 4.764020874023437 2.107875 Q 4.7505208740234375 2.11725 4.737020874023438 2.11725 Q 4.7265208740234375 2.11725 4.719395874023437 2.1123749999999997 Q 4.712270874023438 2.1075 4.712270874023438 2.09625 Q 4.712270874023438 2.082 4.721645874023437 2.0797499999999998 Q 4.731020874023438 2.0774999999999997 4.740020874023437 2.073 Q 4.7497708740234375 2.0677499999999998 4.755395874023438 2.058375 Q 4.761020874023438 2.049 4.761020874023438 2.0385 Q 4.761020874023438 2.0302499999999997 4.755395874023438 2.024625 Q 4.7497708740234375 2.0189999999999997 4.740770874023437 2.0189999999999997 Q 4.735520874023438 2.0189999999999997 4.729895874023438 2.0204999999999997 Q 4.724270874023437 2.022 4.720520874023437 2.025 Q 4.715270874023438 2.0212499999999998 4.711520874023438 2.016 Q 4.707770874023438 2.01075 4.707770874023438 2.0025 Q 4.708520874023438 1.99125 4.716395874023437 1.9822499999999998 Q 4.724270874023437 1.97325 4.736645874023438 1.9679999999999997 Q 4.749020874023437 1.9627499999999998 4.760270874023438 1.9627499999999998 Q 4.783520874023438 1.9627499999999998 4.7981458740234375 1.9773749999999999 Q 4.812770874023437 1.9919999999999998 4.812770874023437 2.0197499999999997 M 5.16604541015625 1.9927499999999998 Q 5.16604541015625 2.0055 5.15742041015625 2.0145 Q 5.14879541015625 2.0235 5.13604541015625 2.0235 Q 5.12254541015625 2.0235 5.11429541015625 2.0145 Q 5.10604541015625 2.0055 5.10604541015625 1.9927499999999998 L 5.10604541015625 1.6597499999999998 Q 5.10604541015625 1.6469999999999998 5.11467041015625 1.638375 Q 5.12329541015625 1.6297499999999998 5.13604541015625 1.6297499999999998 Q 5.14879541015625 1.6297499999999998 5.15742041015625 1.638375 Q 5.16604541015625 1.6469999999999998 5.16604541015625 1.6597499999999998 L 5.16604541015625 1.9927499999999998 M 5.13604541015625 1.5795 Q 5.11729541015625 1.5795 5.10829541015625 1.5719999999999998 Q 5.09929541015625 1.5644999999999998 5.09929541015625 1.5487499999999998 L 5.09929541015625 1.53825 Q 5.09929541015625 1.5225 5.10904541015625 1.5149999999999997 Q 5.11879541015625 1.5074999999999998 5.13679541015625 1.5074999999999998 Q 5.15479541015625 1.5074999999999998 5.16379541015625 1.5149999999999997 Q 5.17279541015625 1.5225 5.17279541015625 1.53825 L 5.17279541015625 1.5487499999999998 Q 5.17279541015625 1.5644999999999998 5.16342041015625 1.5719999999999998 Q 5.15404541015625 1.5795 5.13604541015625 1.5795 M 5.259051635742187 1.638 L 5.435301635742188 1.638 Q 5.447301635742187 1.638 5.455176635742188 1.6462499999999998 Q 5.463051635742188 1.6544999999999999 5.463051635742188 1.6657499999999998 Q 5.463051635742188 1.6777499999999999 5.455176635742188 1.685625 Q 5.447301635742187 1.6934999999999998 5.435301635742188 1.6934999999999998 L 5.259051635742187 1.6934999999999998 Q 5.247801635742188 1.6934999999999998 5.239551635742187 1.68525 Q 5.231301635742187 1.6769999999999998 5.231301635742187 1.6649999999999998 Q 5.231301635742187 1.6537499999999998 5.239551635742187 1.6458749999999998 Q 5.247801635742188 1.638 5.259051635742187 1.638 M 5.337801635742188 1.5359999999999998 Q 5.350551635742187 1.5359999999999998 5.3588016357421875 1.544625 Q 5.367051635742188 1.5532499999999998 5.367051635742188 1.5659999999999998 L 5.367051635742188 1.9282499999999998 Q 5.367051635742188 1.9462499999999998 5.372301635742187 1.95525 Q 5.377551635742187 1.9642499999999998 5.386176635742188 1.967625 Q 5.394801635742187 1.9709999999999999 5.403051635742187 1.9709999999999999 Q 5.410551635742188 1.9709999999999999 5.416176635742188 1.9683749999999998 Q 5.421801635742187 1.9657499999999999 5.4293016357421875 1.9657499999999999 Q 5.436801635742188 1.9657499999999999 5.443176635742187 1.972875 Q 5.449551635742187 1.9799999999999998 5.449551635742187 1.99125 Q 5.449551635742187 2.00475 5.433801635742188 2.014125 Q 5.418051635742188 2.0235 5.398551635742187 2.0235 Q 5.388051635742188 2.0235 5.372676635742187 2.022 Q 5.357301635742187 2.0204999999999997 5.342301635742188 2.01225 Q 5.327301635742187 2.004 5.317176635742188 1.984875 Q 5.307051635742187 1.9657499999999999 5.307051635742187 1.93125 L 5.307051635742187 1.5659999999999998 Q 5.307051635742187 1.5532499999999998 5.316051635742188 1.544625 Q 5.325051635742187 1.5359999999999998 5.337801635742188 1.5359999999999998 M 5.53803369140625 1.52325 Q 5.54103369140625 1.4985 5.56578369140625 1.4985 L 5.58978369140625 1.4985 Q 5.60328369140625 1.4985 5.60815869140625 1.5063749999999998 Q 5.61303369140625 1.5142499999999999 5.60853369140625 1.527 L 5.55978369140625 1.68675 Q 5.55378369140625 1.7054999999999998 5.53503369140625 1.7054999999999998 Q 5.51928369140625 1.7054999999999998 5.52153369140625 1.6822499999999998 L 5.53803369140625 1.52325 M 5.674542846679688 1.9619999999999997 Q 5.667792846679688 1.9522499999999998 5.668542846679688 1.9413749999999999 Q 5.669292846679688 1.9304999999999999 5.681292846679687 1.9222499999999998 Q 5.6887928466796875 1.9169999999999998 5.698917846679688 1.9177499999999998 Q 5.709042846679687 1.9184999999999999 5.717292846679688 1.9274999999999998 Q 5.738292846679688 1.9522499999999998 5.765292846679688 1.966875 Q 5.792292846679688 1.9814999999999998 5.831292846679688 1.9814999999999998 Q 5.849292846679687 1.9807499999999998 5.867292846679687 1.9754999999999998 Q 5.885292846679688 1.9702499999999998 5.8976678466796875 1.9571249999999998 Q 5.910042846679687 1.944 5.910042846679687 1.9222499999999998 Q 5.910042846679687 1.9012499999999999 5.8972928466796875 1.8888749999999999 Q 5.884542846679688 1.8764999999999998 5.864292846679687 1.8686249999999998 Q 5.844042846679687 1.86075 5.820042846679687 1.85475 Q 5.795292846679687 1.8479999999999999 5.771292846679687 1.8393749999999998 Q 5.747292846679687 1.8307499999999999 5.728167846679687 1.8176249999999998 Q 5.709042846679687 1.8044999999999998 5.697417846679688 1.784625 Q 5.685792846679687 1.7647499999999998 5.685792846679687 1.7362499999999998 Q 5.685792846679687 1.7025 5.704167846679687 1.6777499999999999 Q 5.722542846679688 1.6529999999999998 5.753667846679687 1.6395 Q 5.784792846679688 1.626 5.821542846679687 1.626 Q 5.842542846679687 1.626 5.865417846679687 1.6308749999999999 Q 5.888292846679687 1.6357499999999998 5.910042846679687 1.6473749999999998 Q 5.931792846679688 1.6589999999999998 5.948292846679688 1.67925 Q 5.955042846679688 1.68675 5.955792846679688 1.698 Q 5.956542846679688 1.70925 5.9460428466796875 1.7182499999999998 Q 5.937792846679687 1.7242499999999998 5.927667846679688 1.7234999999999998 Q 5.917542846679687 1.7227499999999998 5.910792846679687 1.7159999999999997 Q 5.895042846679687 1.69725 5.871417846679687 1.687125 Q 5.847792846679687 1.6769999999999998 5.819292846679687 1.6769999999999998 Q 5.801292846679687 1.6769999999999998 5.784042846679688 1.6822499999999998 Q 5.766792846679688 1.6874999999999998 5.755167846679687 1.6998749999999998 Q 5.743542846679688 1.7122499999999998 5.743542846679688 1.734 Q 5.744292846679688 1.7542499999999999 5.7570428466796875 1.767 Q 5.769792846679687 1.77975 5.791542846679688 1.7876249999999998 Q 5.813292846679688 1.7954999999999999 5.839542846679688 1.803 Q 5.863542846679687 1.809 5.885667846679688 1.8168749999999998 Q 5.907792846679688 1.8247499999999999 5.925792846679688 1.8375 Q 5.943792846679687 1.85025 5.954292846679688 1.8701249999999998 Q 5.964792846679687 1.89 5.964792846679687 1.92 Q 5.964792846679687 1.9545 5.9452928466796875 1.9796249999999997 Q 5.925792846679688 2.00475 5.893917846679687 2.0178749999999996 Q 5.862042846679688 2.0309999999999997 5.825292846679687 2.0309999999999997 Q 5.784042846679688 2.0309999999999997 5.743917846679688 2.01525 Q 5.703792846679687 1.9994999999999998 5.674542846679688 1.9619999999999997 M 6.243060424804687 1.638 L 6.419310424804688 1.638 Q 6.431310424804687 1.638 6.439185424804688 1.6462499999999998 Q 6.447060424804688 1.6544999999999999 6.447060424804688 1.6657499999999998 Q 6.447060424804688 1.6777499999999999 6.439185424804688 1.685625 Q 6.431310424804687 1.6934999999999998 6.419310424804688 1.6934999999999998 L 6.243060424804687 1.6934999999999998 Q 6.231810424804688 1.6934999999999998 6.223560424804687 1.68525 Q 6.215310424804687 1.6769999999999998 6.215310424804687 1.6649999999999998 Q 6.215310424804687 1.6537499999999998 6.223560424804687 1.6458749999999998 Q 6.231810424804688 1.638 6.243060424804687 1.638 M 6.321810424804688 1.5359999999999998 Q 6.334560424804687 1.5359999999999998 6.3428104248046875 1.544625 Q 6.351060424804688 1.5532499999999998 6.351060424804688 1.5659999999999998 L 6.351060424804688 1.9282499999999998 Q 6.351060424804688 1.9462499999999998 6.356310424804687 1.95525 Q 6.361560424804687 1.9642499999999998 6.370185424804688 1.967625 Q 6.378810424804687 1.9709999999999999 6.387060424804687 1.9709999999999999 Q 6.394560424804688 1.9709999999999999 6.400185424804688 1.9683749999999998 Q 6.405810424804687 1.9657499999999999 6.4133104248046875 1.9657499999999999 Q 6.420810424804688 1.9657499999999999 6.427185424804687 1.972875 Q 6.433560424804687 1.9799999999999998 6.433560424804687 1.99125 Q 6.433560424804687 2.00475 6.417810424804688 2.014125 Q 6.402060424804688 2.0235 6.382560424804687 2.0235 Q 6.372060424804688 2.0235 6.356685424804687 2.022 Q 6.341310424804687 2.0204999999999997 6.326310424804688 2.01225 Q 6.311310424804687 2.004 6.301185424804688 1.984875 Q 6.291060424804687 1.9657499999999999 6.291060424804687 1.93125 L 6.291060424804687 1.5659999999999998 Q 6.291060424804687 1.5532499999999998 6.300060424804688 1.544625 Q 6.309060424804687 1.5359999999999998 6.321810424804688 1.5359999999999998 M 6.702038818359375 2.0309999999999997 Q 6.642038818359375 2.0309999999999997 6.597038818359375 2.0055 Q 6.552038818359375 1.9799999999999998 6.527288818359375 1.9353749999999998 Q 6.502538818359375 1.89075 6.502538818359375 1.83225 Q 6.502538818359375 1.767 6.528413818359375 1.720875 Q 6.554288818359375 1.67475 6.595538818359375 1.650375 Q 6.636788818359375 1.626 6.683288818359375 1.626 Q 6.718538818359375 1.626 6.750413818359375 1.63875 Q 6.782288818359375 1.6515 6.807413818359375 1.6758749999999998 Q 6.832538818359375 1.7002499999999998 6.847538818359375 1.7343749999999998 Q 6.862538818359375 1.7685 6.863288818359375 1.8104999999999998 Q 6.862538818359375 1.8224999999999998 6.853538818359375 1.8307499999999999 Q 6.844538818359375 1.839 6.832538818359375 1.839 L 6.536288818359375 1.839 L 6.522788818359375 1.7872499999999998 L 6.8115388183593755 1.7872499999999998 L 6.799538818359375 1.7977499999999997 L 6.799538818359375 1.7812499999999998 Q 6.797288818359375 1.7504999999999997 6.779663818359375 1.7283749999999998 Q 6.762038818359375 1.7062499999999998 6.736538818359375 1.6942499999999998 Q 6.711038818359375 1.6822499999999998 6.683288818359375 1.6822499999999998 Q 6.660788818359375 1.6822499999999998 6.638663818359375 1.6901249999999999 Q 6.616538818359375 1.698 6.598913818359375 1.7156249999999997 Q 6.581288818359375 1.73325 6.570788818359375 1.761 Q 6.560288818359375 1.7887499999999998 6.560288818359375 1.8277499999999998 Q 6.560288818359375 1.8712499999999999 6.577913818359375 1.9042499999999998 Q 6.595538818359375 1.93725 6.627038818359375 1.9563749999999998 Q 6.658538818359375 1.9754999999999998 6.699788818359375 1.9754999999999998 Q 6.726788818359375 1.9754999999999998 6.746288818359375 1.9687499999999998 Q 6.765788818359375 1.9619999999999997 6.779663818359375 1.9518749999999998 Q 6.793538818359375 1.9417499999999999 6.803288818359375 1.93125 Q 6.813038818359375 1.9244999999999999 6.822788818359375 1.9244999999999999 Q 6.833288818359375 1.9244999999999999 6.840788818359375 1.932 Q 6.848288818359375 1.9394999999999998 6.848288818359375 1.95 Q 6.848288818359375 1.9627499999999998 6.836288818359375 1.9725 Q 6.814538818359375 1.99575 6.778913818359375 2.013375 Q 6.743288818359375 2.0309999999999997 6.702038818359375 2.0309999999999997 M 7.118308227539062 1.626 Q 7.156558227539063 1.626 7.187308227539063 1.6342499999999998 Q 7.218058227539062 1.6424999999999998 7.236058227539062 1.6567499999999997 Q 7.254058227539063 1.6709999999999998 7.254058227539063 1.6889999999999998 Q 7.254058227539063 1.69875 7.247683227539063 1.7077499999999999 Q 7.241308227539062 1.7167499999999998 7.229308227539063 1.7167499999999998 Q 7.219558227539062 1.7167499999999998 7.213183227539062 1.7129999999999999 Q 7.206808227539063 1.70925 7.201183227539063 1.70325 Q 7.195558227539062 1.69725 7.185808227539063 1.6927499999999998 Q 7.176808227539063 1.6874999999999998 7.159558227539063 1.6844999999999999 Q 7.142308227539062 1.6814999999999998 7.124308227539062 1.6814999999999998 Q 7.083808227539063 1.6814999999999998 7.052308227539062 1.7009999999999998 Q 7.020808227539063 1.7205 7.003183227539062 1.7534999999999998 Q 6.985558227539062 1.7864999999999998 6.985558227539062 1.8284999999999998 Q 6.985558227539062 1.8704999999999998 7.002808227539062 1.9034999999999997 Q 7.020058227539063 1.9364999999999999 7.050808227539062 1.956 Q 7.0815582275390625 1.9754999999999998 7.122058227539062 1.9754999999999998 Q 7.148308227539062 1.9754999999999998 7.163683227539062 1.9709999999999999 Q 7.179058227539063 1.9665 7.190308227539062 1.9605 Q 7.203058227539063 1.9529999999999998 7.210183227539062 1.9454999999999998 Q 7.217308227539062 1.938 7.230058227539063 1.938 Q 7.242808227539062 1.938 7.249558227539063 1.9462499999999998 Q 7.256308227539063 1.9545 7.256308227539063 1.9665 Q 7.256308227539063 1.9799999999999998 7.237558227539062 1.9949999999999999 Q 7.218808227539062 2.01 7.186933227539063 2.0204999999999997 Q 7.155058227539063 2.0309999999999997 7.115308227539063 2.0309999999999997 Q 7.0583082275390625 2.0309999999999997 7.015558227539063 2.004375 Q 6.972808227539063 1.97775 6.949183227539063 1.931625 Q 6.925558227539063 1.8855 6.925558227539063 1.8284999999999998 Q 6.925558227539063 1.7714999999999999 6.949933227539063 1.72575 Q 6.974308227539063 1.6799999999999997 7.017808227539063 1.6529999999999998 Q 7.061308227539063 1.626 7.118308227539062 1.626 M 7.522541015625 1.6297499999999998 Q 7.572041015625 1.6297499999999998 7.600916015625 1.651125 Q 7.629791015625 1.6724999999999999 7.642166015625 1.708125 Q 7.654541015625 1.74375 7.654541015625 1.7872499999999998 L 7.654541015625 1.9927499999999998 Q 7.654541015625 2.0055 7.645916015625 2.0145 Q 7.637291015625 2.0235 7.624541015625 2.0235 Q 7.611791015625 2.0235 7.603166015625 2.0145 Q 7.594541015625 2.0055 7.594541015625 1.9927499999999998 L 7.594541015625 1.7872499999999998 Q 7.594541015625 1.7587499999999998 7.586291015625 1.7358749999999998 Q 7.578041015625 1.7129999999999999 7.558916015625 1.6991249999999998 Q 7.539791015625 1.68525 7.506791015625 1.68525 Q 7.476041015625 1.68525 7.450541015625 1.6991249999999998 Q 7.425041015625 1.7129999999999999 7.410041015625 1.7358749999999998 Q 7.395041015625 1.7587499999999998 7.395041015625 1.7872499999999998 L 7.395041015625 1.9927499999999998 Q 7.395041015625 2.0055 7.386416015625 2.0145 Q 7.377791015625 2.0235 7.365041015625 2.0235 Q 7.352291015625 2.0235 7.343666015625 2.0145 Q 7.335041015625 2.0055 7.335041015625 1.9927499999999998 L 7.335041015625 1.4985 Q 7.335041015625 1.48575 7.343666015625 1.4771249999999998 Q 7.352291015625 1.4684999999999997 7.365041015625 1.4684999999999997 Q 7.378541015625 1.4684999999999997 7.386791015625 1.4771249999999998 Q 7.395041015625 1.48575 7.395041015625 1.4985 L 7.395041015625 1.7227499999999998 L 7.380041015625 1.7392499999999997 Q 7.383791015625 1.71975 7.396541015625 1.6998749999999998 Q 7.409291015625 1.6799999999999997 7.428791015625 1.6642499999999998 Q 7.448291015625 1.6484999999999999 7.472291015625 1.639125 Q 7.496291015625 1.6297499999999998 7.522541015625 1.6297499999999998 M 7.95827197265625 1.626 Q 8.00927197265625 1.626 8.03852197265625 1.6469999999999998 Q 8.06777197265625 1.668 8.08014697265625 1.70325 Q 8.09252197265625 1.7384999999999997 8.09252197265625 1.7819999999999998 L 8.09252197265625 1.9927499999999998 Q 8.09252197265625 2.0055 8.08389697265625 2.0145 Q 8.07527197265625 2.0235 8.06252197265625 2.0235 Q 8.04977197265625 2.0235 8.04114697265625 2.0145 Q 8.03252197265625 2.0055 8.03252197265625 1.9927499999999998 L 8.03252197265625 1.7834999999999999 Q 8.03252197265625 1.755 8.02389697265625 1.732125 Q 8.015271972656251 1.70925 7.99539697265625 1.6953749999999999 Q 7.97552197265625 1.6814999999999998 7.94102197265625 1.6814999999999998 Q 7.9095219726562505 1.6814999999999998 7.88327197265625 1.6953749999999999 Q 7.85702197265625 1.70925 7.84127197265625 1.732125 Q 7.82552197265625 1.755 7.82552197265625 1.7834999999999999 L 7.82552197265625 1.9927499999999998 Q 7.82552197265625 2.0055 7.81689697265625 2.0145 Q 7.80827197265625 2.0235 7.79552197265625 2.0235 Q 7.78277197265625 2.0235 7.77414697265625 2.0145 Q 7.76552197265625 2.0055 7.76552197265625 1.9927499999999998 L 7.76552197265625 1.6657499999999998 Q 7.76552197265625 1.6529999999999998 7.77414697265625 1.644375 Q 7.78277197265625 1.6357499999999998 7.79552197265625 1.6357499999999998 Q 7.80902197265625 1.6357499999999998 7.81727197265625 1.644375 Q 7.82552197265625 1.6529999999999998 7.82552197265625 1.6657499999999998 L 7.82552197265625 1.7189999999999999 L 7.81052197265625 1.7354999999999998 Q 7.81427197265625 1.7159999999999997 7.82777197265625 1.6961249999999999 Q 7.84127197265625 1.6762499999999998 7.86152197265625 1.6604999999999999 Q 7.88177197265625 1.6447499999999997 7.90652197265625 1.6353749999999998 Q 7.93127197265625 1.626 7.95827197265625 1.626 M 8.56801025390625 1.8284999999999998 Q 8.56801025390625 1.8869999999999998 8.54251025390625 1.93275 Q 8.51701025390625 1.9785 8.47313525390625 2.00475 Q 8.42926025390625 2.0309999999999997 8.37376025390625 2.0309999999999997 Q 8.31901025390625 2.0309999999999997 8.27513525390625 2.00475 Q 8.23126025390625 1.9785 8.20538525390625 1.93275 Q 8.17951025390625 1.8869999999999998 8.17951025390625 1.8284999999999998 Q 8.17951025390625 1.7699999999999998 8.20538525390625 1.7242499999999998 Q 8.23126025390625 1.6784999999999999 8.27513525390625 1.6522499999999998 Q 8.31901025390625 1.626 8.37376025390625 1.626 Q 8.42926025390625 1.626 8.47313525390625 1.6522499999999998 Q 8.51701025390625 1.6784999999999999 8.54251025390625 1.7242499999999998 Q 8.56801025390625 1.7699999999999998 8.56801025390625 1.8284999999999998 M 8.50801025390625 1.8284999999999998 Q 8.50801025390625 1.785 8.49038525390625 1.7519999999999998 Q 8.47276025390625 1.7189999999999999 8.44238525390625 1.7002499999999998 Q 8.41201025390625 1.6814999999999998 8.37376025390625 1.6814999999999998 Q 8.33626025390625 1.6814999999999998 8.30551025390625 1.7002499999999998 Q 8.27476025390625 1.7189999999999999 8.25713525390625 1.7519999999999998 Q 8.23951025390625 1.785 8.23951025390625 1.8284999999999998 Q 8.23951025390625 1.8712499999999999 8.25713525390625 1.9042499999999998 Q 8.27476025390625 1.93725 8.30551025390625 1.9563749999999998 Q 8.33626025390625 1.9754999999999998 8.37376025390625 1.9754999999999998 Q 8.41201025390625 1.9754999999999998 8.44238525390625 1.9563749999999998 Q 8.47276025390625 1.93725 8.49038525390625 1.9042499999999998 Q 8.50801025390625 1.8712499999999999 8.50801025390625 1.8284999999999998 M 8.721002563476562 1.9927499999999998 Q 8.721002563476562 2.0055 8.712002563476563 2.0145 Q 8.703002563476563 2.0235 8.690252563476562 2.0235 Q 8.677502563476562 2.0235 8.669252563476563 2.0145 Q 8.661002563476563 2.0055 8.661002563476563 1.9927499999999998 L 8.661002563476563 1.4985 Q 8.661002563476563 1.48575 8.669627563476563 1.4771249999999998 Q 8.678252563476562 1.4684999999999997 8.691002563476562 1.4684999999999997 Q 8.704502563476563 1.4684999999999997 8.712752563476563 1.4771249999999998 Q 8.721002563476562 1.48575 8.721002563476562 1.4985 L 8.721002563476562 1.9927499999999998 M 9.19423095703125 1.8284999999999998 Q 9.19423095703125 1.8869999999999998 9.16873095703125 1.93275 Q 9.14323095703125 1.9785 9.09935595703125 2.00475 Q 9.05548095703125 2.0309999999999997 8.99998095703125 2.0309999999999997 Q 8.94523095703125 2.0309999999999997 8.90135595703125 2.00475 Q 8.85748095703125 1.9785 8.83160595703125 1.93275 Q 8.80573095703125 1.8869999999999998 8.80573095703125 1.8284999999999998 Q 8.80573095703125 1.7699999999999998 8.83160595703125 1.7242499999999998 Q 8.85748095703125 1.6784999999999999 8.90135595703125 1.6522499999999998 Q 8.94523095703125 1.626 8.99998095703125 1.626 Q 9.05548095703125 1.626 9.09935595703125 1.6522499999999998 Q 9.14323095703125 1.6784999999999999 9.16873095703125 1.7242499999999998 Q 9.19423095703125 1.7699999999999998 9.19423095703125 1.8284999999999998 M 9.13423095703125 1.8284999999999998 Q 9.13423095703125 1.785 9.11660595703125 1.7519999999999998 Q 9.09898095703125 1.7189999999999999 9.06860595703125 1.7002499999999998 Q 9.03823095703125 1.6814999999999998 8.99998095703125 1.6814999999999998 Q 8.96248095703125 1.6814999999999998 8.93173095703125 1.7002499999999998 Q 8.90098095703125 1.7189999999999999 8.88335595703125 1.7519999999999998 Q 8.86573095703125 1.785 8.86573095703125 1.8284999999999998 Q 8.86573095703125 1.8712499999999999 8.88335595703125 1.9042499999999998 Q 8.90098095703125 1.93725 8.93173095703125 1.9563749999999998 Q 8.96248095703125 1.9754999999999998 8.99998095703125 1.9754999999999998 Q 9.03823095703125 1.9754999999999998 9.06860595703125 1.9563749999999998 Q 9.09898095703125 1.93725 9.11660595703125 1.9042499999999998 Q 9.13423095703125 1.8712499999999999 9.13423095703125 1.8284999999999998 M 9.440223266601562 1.626 Q 9.473223266601563 1.626 9.500973266601562 1.6368749999999999 Q 9.528723266601563 1.6477499999999998 9.549348266601562 1.6649999999999998 Q 9.569973266601563 1.6822499999999998 9.581598266601562 1.7009999999999998 Q 9.593223266601562 1.71975 9.593223266601562 1.7362499999999998 L 9.578223266601562 1.7272499999999997 L 9.578223266601562 1.662 Q 9.578223266601562 1.6492499999999999 9.586848266601562 1.6406249999999998 Q 9.595473266601562 1.632 9.608223266601563 1.632 Q 9.621723266601563 1.632 9.629973266601562 1.6406249999999998 Q 9.638223266601562 1.6492499999999999 9.638223266601562 1.662 L 9.638223266601562 1.9905 Q 9.638223266601562 2.052 9.612348266601563 2.0925 Q 9.586473266601562 2.133 9.542973266601562 2.15325 Q 9.499473266601562 2.1734999999999998 9.446223266601562 2.1734999999999998 Q 9.423723266601563 2.1734999999999998 9.396348266601562 2.1675 Q 9.368973266601563 2.1614999999999998 9.347973266601562 2.152875 Q 9.326973266601563 2.14425 9.321723266601563 2.1352499999999996 Q 9.310473266601562 2.12775 9.307848266601562 2.118375 Q 9.305223266601562 2.109 9.310473266601562 2.1007499999999997 Q 9.317973266601562 2.0902499999999997 9.328473266601563 2.0902499999999997 Q 9.338973266601563 2.0902499999999997 9.355473266601562 2.097 Q 9.362973266601562 2.09925 9.377223266601563 2.1045 Q 9.391473266601562 2.10975 9.410223266601562 2.1138749999999997 Q 9.428973266601563 2.118 9.446973266601562 2.118 Q 9.510723266601563 2.118 9.544473266601562 2.084625 Q 9.578223266601562 2.05125 9.578223266601562 1.9965 L 9.578223266601562 1.9267499999999997 L 9.586473266601562 1.9304999999999999 Q 9.581973266601562 1.9514999999999998 9.568473266601563 1.9694999999999998 Q 9.554973266601563 1.9874999999999998 9.535098266601562 2.001375 Q 9.515223266601563 2.01525 9.490848266601562 2.023125 Q 9.466473266601563 2.0309999999999997 9.441723266601562 2.0309999999999997 Q 9.389223266601563 2.0309999999999997 9.347598266601562 2.00475 Q 9.305973266601562 1.9785 9.281598266601563 1.93275 Q 9.257223266601562 1.8869999999999998 9.257223266601562 1.8284999999999998 Q 9.257223266601562 1.7692499999999998 9.281598266601563 1.7234999999999998 Q 9.305973266601562 1.6777499999999999 9.347223266601562 1.651875 Q 9.388473266601563 1.626 9.440223266601562 1.626 M 9.448473266601562 1.6814999999999998 Q 9.409473266601562 1.6814999999999998 9.379473266601563 1.7006249999999998 Q 9.349473266601562 1.71975 9.332223266601563 1.7527499999999998 Q 9.314973266601562 1.7857499999999997 9.314973266601562 1.8284999999999998 Q 9.314973266601562 1.8697499999999998 9.332223266601563 1.903125 Q 9.349473266601562 1.9364999999999999 9.379473266601563 1.956 Q 9.409473266601562 1.9754999999999998 9.448473266601562 1.9754999999999998 Q 9.487473266601562 1.9754999999999998 9.517473266601563 1.9563749999999998 Q 9.547473266601562 1.93725 9.564723266601563 1.9042499999999998 Q 9.581973266601562 1.8712499999999999 9.581973266601562 1.8284999999999998 Q 9.581973266601562 1.785 9.564723266601563 1.7519999999999998 Q 9.547473266601562 1.7189999999999999 9.517473266601563 1.7002499999999998 Q 9.487473266601562 1.6814999999999998 9.448473266601562 1.6814999999999998 M 10.039490844726563 1.6297499999999998 Q 10.052240844726562 1.6297499999999998 10.060865844726562 1.638375 Q 10.069490844726563 1.6469999999999998 10.069490844726563 1.6597499999999998 L 10.069490844726563 1.9867499999999998 Q 10.069490844726563 2.04975 10.044740844726563 2.0913749999999998 Q 10.019990844726562 2.133 9.978365844726563 2.15325 Q 9.936740844726563 2.1734999999999998 9.884240844726563 2.1734999999999998 Q 9.854990844726563 2.1734999999999998 9.827990844726562 2.1675 Q 9.800990844726563 2.1614999999999998 9.783740844726562 2.15175 Q 9.769490844726562 2.145 9.763865844726563 2.134875 Q 9.758240844726563 2.1247499999999997 9.761990844726563 2.1134999999999997 Q 9.767240844726562 2.0999999999999996 9.777365844726562 2.09475 Q 9.787490844726562 2.0894999999999997 9.798740844726563 2.09475 Q 9.810740844726563 2.0999999999999996 9.833615844726562 2.109375 Q 9.856490844726563 2.11875 9.884990844726563 2.11875 Q 9.923990844726562 2.11875 9.951740844726562 2.10375 Q 9.979490844726563 2.0887499999999997 9.994490844726563 2.059875 Q 10.009490844726562 2.0309999999999997 10.009490844726562 1.9882499999999999 L 10.009490844726562 1.9349999999999998 L 10.018490844726562 1.9537499999999999 Q 10.006490844726562 1.9769999999999999 9.986240844726563 1.9942499999999999 Q 9.965990844726562 2.0115 9.939740844726563 2.0212499999999998 Q 9.913490844726562 2.0309999999999997 9.881990844726563 2.0309999999999997 Q 9.839240844726563 2.0309999999999997 9.809615844726563 2.012625 Q 9.779990844726562 1.9942499999999999 9.764615844726562 1.961625 Q 9.749240844726563 1.9289999999999998 9.749240844726563 1.8862499999999998 L 9.749240844726563 1.6597499999999998 Q 9.749240844726563 1.6469999999999998 9.757865844726563 1.638375 Q 9.766490844726562 1.6297499999999998 9.779240844726562 1.6297499999999998 Q 9.792740844726563 1.6297499999999998 9.800990844726563 1.638375 Q 9.809240844726563 1.6469999999999998 9.809240844726563 1.6597499999999998 L 9.809240844726563 1.87275 Q 9.809240844726563 1.9237499999999998 9.831740844726562 1.949625 Q 9.854240844726563 1.9754999999999998 9.901490844726563 1.9754999999999998 Q 9.931490844726563 1.9754999999999998 9.955865844726562 1.9619999999999997 Q 9.980240844726563 1.9485 9.994865844726563 1.924875 Q 10.009490844726562 1.9012499999999999 10.009490844726562 1.87275 L 10.009490844726562 1.6597499999999998 Q 10.009490844726562 1.6469999999999998 10.017740844726562 1.638375 Q 10.025990844726563 1.6297499999999998 10.039490844726563 1.6297499999999998" fill="#ffffff" fill-rule="nonzero"></path></g><g clip-path="url(#SvgjsClipPath1000)"><path d=" M 1.2874876533522315 -7.800024693295537 L 8.837512346647769 -7.800024693295537 L 8.837512346647769 -0.25 L 1.2874876533522315 -0.25 Z M 1.5383195284166007 -7.549192818231168 L 1.5383195284166007 -0.5008318750643692 L 8.5866804715834 -0.5008318750643692 L 8.5866804715834 -7.549192818231168 Z" fill="#ffffff" transform="matrix(1,0,0,1,0,0)" fill-rule="nonzero"></path><path d=" M 5.428017068484943 -5.5390120073668205 L 6.726301737966979 -5.5390120073668205 L 6.726301737966979 -4.989737724124421 L 6.406723973171401 -4.989737724124421 L 6.406723973171401 -3.0582896081411444 L 6.726301737966979 -3.0582896081411444 L 6.726301737966979 -2.511012685928717 L 5.428017068484943 -2.511012685928717 L 5.428017068484943 -3.0582896081411444 L 5.743600111220577 -3.0582896081411444 L 5.743600111220577 -3.833265687770422 L 4.377405166719479 -3.833265687770422 L 4.377405166719479 -3.0582896081411444 L 4.696982931515057 -3.0582896081411444 L 4.696982931515057 -2.511012685928717 L 3.400695623062993 -2.511012685928717 L 3.400695623062993 -3.0582896081411444 L 3.714281304768654 -3.0582896081411444 L 3.714281304768654 -4.989737724124421 L 3.400695623062993 -4.989737724124421 L 3.400695623062993 -5.5390120073668205 L 4.696982931515057 -5.5390120073668205 L 4.696982931515057 -4.989737724124421 L 4.377405166719479 -4.989737724124421 L 4.377405166719479 -4.360568999683126 L 5.743600111220577 -4.360568999683126 L 5.743600111220577 -4.989737724124421 L 5.428017068484943 -4.989737724124421 L 5.428017068484943 -5.5390120073668205" fill="#ffffff" transform="matrix(1,0,0,1,0,0)" fill-rule="nonzero"></path></g></g><defs><clipPath id="SvgjsClipPath1000"><path d=" M 1.2874876533522315 -7.800024693295537 h 7.550024693295537 v 7.550024693295537 h -7.550024693295537 Z"></path></clipPath></defs></svg>